<svg width="26" height="26" viewBox="0 0 26 26" fill="none" xmlns="http://www.w3.org/2000/svg">
<path d="M8.9622 25.2873C9.3632 25.1147 9.64407 24.716 9.64407 24.2518V21.2062C9.64407 21.0951 9.6531 20.9795 9.6672 20.8622C9.6593 20.8644 9.65197 20.8661 9.64407 20.8678C9.64407 20.8678 7.95209 20.8678 7.61369 20.8678C6.7677 20.8678 6.0345 20.5294 5.69611 19.8526C5.30131 19.1194 5.13211 17.8787 4.11692 17.2019C3.94772 17.0891 4.06052 16.9199 4.39892 16.9199C4.73731 16.9763 5.47051 17.4275 5.9217 18.0479C6.4293 18.6682 6.9369 19.1758 7.83929 19.1758C9.24194 19.1758 9.99375 19.1053 10.4461 18.8628C10.9728 18.0794 11.7021 17.4839 12.4641 17.4839V17.4698C9.26732 17.3671 7.2251 16.3045 6.2742 14.6639C4.20716 14.6876 2.40745 14.8923 1.38041 15.0626C1.3477 14.8782 1.3195 14.6926 1.29525 14.506C2.30875 14.339 4.02668 14.1411 6.00179 14.1033C5.93862 13.9476 5.88392 13.788 5.83767 13.6244C3.85748 13.524 2.14858 13.6024 1.22024 13.6791C1.20896 13.4919 1.19373 13.3052 1.19148 13.1157C2.1215 13.0396 3.78416 12.9634 5.71359 13.0531C5.66903 12.7711 5.64027 12.4829 5.64027 12.1829C5.64027 11.2241 5.97867 10.2089 6.59906 9.36289C6.31706 8.40409 5.92227 6.37371 6.71186 5.64052C8.23465 5.64052 9.30624 6.37371 9.81384 6.82491C10.7721 6.42955 11.8437 6.20395 13.028 6.20395C14.2124 6.20395 15.284 6.42955 16.1864 6.82434C16.694 6.37315 17.7656 5.63995 19.2884 5.63995C20.1344 6.42955 19.6832 8.45993 19.4012 9.36232C20.0216 10.2083 20.36 11.1671 20.3036 12.1823C20.3036 12.4553 20.2782 12.7187 20.2415 12.977C22.215 12.88 23.9227 12.9578 24.8686 13.0345C24.8674 13.2246 24.85 13.4101 24.8398 13.5979C23.8974 13.5201 22.1467 13.44 20.1254 13.5477C20.0752 13.7372 20.0143 13.9217 19.9421 14.1004C21.942 14.1264 23.7011 14.3198 24.7631 14.489C24.7388 14.6763 24.7106 14.8618 24.6779 15.0457C23.5996 14.8731 21.7615 14.6712 19.6702 14.6611C18.7312 16.2842 16.7262 17.3429 13.592 17.4664V17.4839C15.0584 17.4839 16.412 19.6834 16.412 21.2062V24.2518C16.412 24.716 16.6929 25.1147 17.0939 25.2873C22.2606 23.5773 25.9999 18.7043 25.9999 12.9719C25.9999 5.8193 20.1812 0 13.028 0C5.87489 0 0.0561523 5.8193 0.0561523 12.9719C0.0561523 18.7043 3.79544 23.5773 8.9622 25.2873Z" fill="#8E8E8E"/>
</svg>
