<svg width="19" height="15" viewBox="0 0 19 15" fill="none" xmlns="http://www.w3.org/2000/svg">
<path d="M1.17518 14.1118C0.526144 14.1065 0.00425565 13.5761 0.00951457 12.9271V12.9271C0.0147735 12.278 0.545186 11.7561 1.19422 11.7614L17.602 11.8944C18.2511 11.8996 18.773 12.43 18.7677 13.0791V13.0791C18.7625 13.7281 18.232 14.25 17.583 14.2447L1.17518 14.1118ZM1.22279 8.23584C0.573756 8.23058 0.0518662 7.70017 0.0571251 7.05113V7.05113C0.0623841 6.40209 0.592797 5.88021 1.24184 5.88546L17.6497 6.01841C18.2987 6.02367 18.8206 6.55408 18.8153 7.20312V7.20312C18.8101 7.85216 18.2797 8.37405 17.6306 8.36879L1.22279 8.23584ZM1.2704 2.3599C0.621365 2.35464 0.0994768 1.82423 0.104736 1.17519V1.17519C0.109995 0.52615 0.640408 0.0042632 1.28945 0.00952211L17.6973 0.142469C18.3463 0.147728 18.8682 0.678141 18.8629 1.32718V1.32718C18.8577 1.97622 18.3273 2.4981 17.6782 2.49285L1.2704 2.3599Z" fill="#969696"/>
</svg>
