<svg width="508" height="479" viewBox="0 0 508 479" fill="none" xmlns="http://www.w3.org/2000/svg">
<path d="M343.93 66.4385L477.928 188.135L378.918 423.172L157.076 450.067L66.9993 436.62L0 361.911L107.571 131.061L343.93 66.4385Z" fill="#262626"/>
<g clip-path="url(#clip0_63_52)">
<path d="M381.387 271.813V404.134L401.482 440.204L403.012 442.948H482.303L483.905 271.813H381.387Z" fill="#E6E6E6"/>
<path opacity="0.1" d="M381.387 271.813V404.134L401.482 440.204L402.715 271.813H381.387Z" fill="black"/>
<path d="M189.966 268.284V400.605L169.871 436.676L168.341 439.419H89.0499L87.4478 268.284H189.966Z" fill="#E6E6E6"/>
<path opacity="0.1" d="M189.966 268.284V400.605L169.87 436.676L168.637 268.284H189.966Z" fill="black"/>
<path d="M507.933 265.638V273.577H77.0356V262.109L117.082 239.174H472.692L507.933 265.638Z" fill="#E6E6E6"/>
<path opacity="0.1" d="M507.933 265.638V273.577H77.0356V262.109L507.933 265.638Z" fill="black"/>
<path d="M138.707 305.334H119.484L111.475 299.159H147.517L138.707 305.334Z" fill="#3F3D56"/>
<path d="M138.707 330.916H119.484L111.475 324.741H147.517L138.707 330.916Z" fill="#3F3D56"/>
<path d="M138.707 367.084H119.484L111.475 360.909H147.517L138.707 367.084Z" fill="#3F3D56"/>
<path d="M138.707 403.252H119.484L111.475 397.077H147.517L138.707 403.252Z" fill="#3F3D56"/>
<path d="M432.646 308.863H451.869L459.878 302.688H423.836L432.646 308.863Z" fill="#3F3D56"/>
<path d="M432.646 334.445H451.869L459.878 328.27H423.836L432.646 334.445Z" fill="#3F3D56"/>
<path d="M432.646 370.613H451.869L459.878 364.438H423.836L432.646 370.613Z" fill="#3F3D56"/>
<path d="M432.646 406.78H451.869L459.878 400.605H423.836L432.646 406.78Z" fill="#3F3D56"/>
<path d="M445.736 86.1581H283.911C283.108 86.1579 282.312 86.3322 281.569 86.6709C280.827 87.0096 280.152 87.5061 279.584 88.1321C279.015 88.758 278.565 89.5011 278.257 90.319C277.95 91.1368 277.791 92.0134 277.792 92.8986V212.961C277.791 213.846 277.95 214.723 278.257 215.541C278.565 216.359 279.015 217.102 279.584 217.728C280.152 218.354 280.827 218.85 281.569 219.189C282.312 219.528 283.108 219.702 283.911 219.702H345.341L343.04 235.886C343.04 235.886 329.887 243.581 339.135 243.808C348.383 244.034 391.951 243.808 391.951 243.808C391.951 243.808 400.376 243.808 387.018 235.659L384.853 219.702H445.736C446.539 219.702 447.335 219.528 448.078 219.189C448.82 218.85 449.495 218.354 450.063 217.728C450.632 217.102 451.083 216.359 451.39 215.541C451.698 214.723 451.856 213.846 451.856 212.961V92.8986C451.856 92.0134 451.698 91.1368 451.39 90.319C451.083 89.5011 450.632 88.758 450.063 88.1321C449.495 87.5061 448.82 87.0096 448.078 86.6709C447.335 86.3322 446.539 86.1579 445.736 86.1581Z" fill="#3F3D56"/>
<path d="M445.999 93.2879H283.648V193.333H445.999V93.2879Z" fill="#F2F2F2"/>
<path d="M364.824 91.2508C365.391 91.2508 365.851 90.7441 365.851 90.1191C365.851 89.4941 365.391 88.9874 364.824 88.9874C364.256 88.9874 363.796 89.4941 363.796 90.1191C363.796 90.7441 364.256 91.2508 364.824 91.2508Z" fill="#F2F2F2"/>
<path d="M364.824 214.835C366.98 214.835 368.728 212.91 368.728 210.535C368.728 208.16 366.98 206.234 364.824 206.234C362.667 206.234 360.919 208.16 360.919 210.535C360.919 212.91 362.667 214.835 364.824 214.835Z" fill="#F2F2F2"/>
<path d="M358.739 256.03V258.294H248.177V256.483L248.329 256.03L251.054 247.882H356.479L358.739 256.03Z" fill="#3F3D56"/>
<path d="M401.287 253.814C401.086 254.763 400.326 255.763 398.608 256.709C392.442 260.104 379.906 255.804 379.906 255.804C379.906 255.804 370.248 253.993 370.248 249.24C370.519 249.035 370.802 248.85 371.094 248.685C373.686 247.175 382.281 243.448 397.519 248.843C398.642 249.231 399.645 249.955 400.416 250.934C400.757 251.304 401.015 251.758 401.166 252.259C401.318 252.759 401.359 253.293 401.287 253.814Z" fill="#3F3D56"/>
<path opacity="0.1" d="M401.287 253.814C393.741 256.999 387.015 257.237 380.112 251.956C377.501 249.831 374.341 248.684 371.094 248.685C373.686 247.175 382.281 243.448 397.519 248.843C398.642 249.231 399.645 249.955 400.416 250.934C400.757 251.304 401.015 251.758 401.166 252.259C401.318 252.759 401.359 253.293 401.287 253.814Z" fill="black"/>
<path d="M391.826 251.956C393.301 251.956 394.497 251.551 394.497 251.051C394.497 250.551 393.301 250.145 391.826 250.145C390.35 250.145 389.154 250.551 389.154 251.051C389.154 251.551 390.35 251.956 391.826 251.956Z" fill="#F2F2F2"/>
<path opacity="0.1" d="M358.739 256.03V258.294H248.177V256.483L248.329 256.03H358.739Z" fill="black"/>
<path d="M107.553 0.000110187C106.431 -0.10136 105.307 0.175093 104.331 0.792837C103.372 1.51583 102.768 2.78243 102.151 3.96107C99.7936 8.52133 96.6016 12.4926 92.7776 15.6232C89.9923 17.8706 86.4512 20.6727 86.9277 24.8163C87.1791 26.1846 87.6381 27.4966 88.2854 28.6969C90.8548 34.4097 97.8665 38.8245 97.1768 45.3433C99.7297 40.6362 96.3151 38.3087 98.8679 33.6017C100.084 31.36 102.196 28.8296 104.031 30.2374C104.646 30.7088 105.049 31.5542 105.689 31.9677C107.216 32.9546 108.84 31.0679 110.192 29.7316C114.853 25.1234 121.481 26.3307 127.281 27.7665C130.019 28.4443 133.026 29.3336 134.645 32.2159C136.773 36.0055 132.623 40.0984 131.574 44.3829C131.489 44.748 131.485 45.1305 131.563 45.4976C131.64 45.8648 131.798 46.2058 132.021 46.4913C132.245 46.7769 132.528 46.9985 132.846 47.1373C133.165 47.2761 133.509 47.328 133.849 47.2884C135.589 47.0993 137.651 46.9444 137.754 46.1032C139.943 46.1891 142.626 45.916 143.564 43.4049C143.851 42.4114 144.003 41.3766 144.014 40.3341C144.359 36.1161 145.984 32.268 147.061 28.2534C148.137 24.2388 148.606 19.534 146.789 15.9746C146.14 14.7903 145.338 13.7167 144.408 12.7877C134.096 1.7964 120.538 -0.016205 107.553 0.000110187Z" fill="#2F2E41"/>
<path d="M99.4196 53.577C99.4196 53.577 101.662 74.1612 93.4391 75.8079C85.2159 77.4546 100.915 105.449 100.915 105.449L138.293 110.389L129.322 77.4546C129.322 77.4546 123.342 74.9845 127.079 58.5172C130.817 42.0499 99.4196 53.577 99.4196 53.577Z" fill="#FFB8B8"/>
<path d="M76.6187 407.213L79.6092 452.498H95.3075L90.8226 407.213H76.6187Z" fill="#FFB8B8"/>
<path d="M191.743 321.583L193.986 359.457L211.18 351.224L204.452 319.936L191.743 321.583Z" fill="#FFB8B8"/>
<path d="M65.4053 234.306C65.4053 234.306 66.1528 282.061 70.6382 297.705C75.1236 313.349 74.376 314.172 73.6285 316.643C72.8809 319.113 72.1334 317.466 72.1334 321.583C72.1334 325.7 70.6382 390.746 72.1334 396.509C73.6285 402.273 67.648 412.153 72.1334 412.976C76.6187 413.8 97.5505 412.976 98.298 408.036C99.0456 403.096 92.3176 401.449 95.3078 398.156C98.2981 394.862 102.783 327.346 102.783 327.346L113.249 280.414L132.686 255.713H173.802L186.51 310.056C186.51 310.056 181.277 325.7 185.015 325.7C188.753 325.7 211.18 330.64 211.18 312.526C211.18 294.412 203.704 240.893 202.209 239.246C200.714 237.599 202.957 231.836 200.714 229.366C198.471 226.896 172.307 209.605 162.588 206.311C152.87 203.018 139.237 199.098 139.237 199.098L65.4053 234.306Z" fill="#2F2E41"/>
<path d="M211.18 344.637C211.18 344.637 199.967 340.52 194.734 352.871C189.501 365.221 191.743 368.515 191.743 368.515C191.743 368.515 208.937 375.102 211.928 371.808C213.229 370.375 217.36 369.877 221.612 369.772C228.089 369.612 229.812 359.52 223.695 357.17C223.513 357.1 223.328 357.039 223.141 356.988C217.16 355.341 211.18 344.637 211.18 344.637Z" fill="#2F2E41"/>
<path d="M116.239 67.1626C128.625 67.1626 138.666 56.1035 138.666 42.4616C138.666 28.8196 128.625 17.7606 116.239 17.7606C103.853 17.7606 93.8125 28.8196 93.8125 42.4616C93.8125 56.1035 103.853 67.1626 116.239 67.1626Z" fill="#FFB8B8"/>
<path d="M87.0846 86.1C87.0846 86.1 123.715 94.3336 132.686 81.1598C141.657 67.9859 145.394 118.211 145.394 118.211L149.88 170.907L143.152 199.725C143.152 199.725 108.016 231.012 96.8029 233.483C85.5895 235.953 68.3955 237.599 68.3955 237.599C68.3955 237.599 73.6285 146.206 73.6285 144.559C73.6285 142.912 87.0846 86.1 87.0846 86.1Z" fill="#6C63FF"/>
<path d="M98.2247 70.658C98.2247 70.658 90.0747 65.5158 87.8321 70.456C85.5894 75.3962 64.6576 87.7467 62.4149 87.7467C60.1722 87.7467 66.9003 156.086 63.91 164.32C60.9198 172.553 46.7161 232.659 54.9393 237.599C63.1625 242.54 57.182 232.659 65.4052 245.01C73.6284 257.36 113.997 257.36 116.239 252.42C118.482 247.48 98.2979 210.428 102.036 175.847C105.774 141.266 111.754 93.5103 106.521 86.9233C101.288 80.3364 98.2247 70.658 98.2247 70.658Z" fill="#2F2E41"/>
<path d="M125.21 76.2196L126.252 72.2727C126.252 72.2727 157.356 83.6299 158.851 91.0402C160.346 98.4505 159.598 150.323 154.365 154.439C149.132 158.556 141.657 165.143 146.89 175.024C152.123 184.904 158.103 195.608 162.589 196.431C167.074 197.254 175.297 203.018 173.054 208.782C170.812 214.545 143.9 203.841 143.9 203.841C143.9 203.841 125.958 189.021 126.706 165.966C127.453 142.912 125.21 76.2196 125.21 76.2196Z" fill="#2F2E41"/>
<path d="M151.375 173.377L133.433 210.428C133.433 210.428 107.269 240.07 122.22 243.363C137.171 246.656 145.395 216.192 145.395 216.192L164.831 185.727L151.375 173.377Z" fill="#FFB8B8"/>
<path d="M108.645 6.46306C107.741 6.38929 106.836 6.58272 106.022 7.02336C105.287 7.61493 104.681 8.37999 104.248 9.26265C102.254 12.5661 99.6552 15.3738 96.6177 17.5054C94.3503 19.0938 91.4678 21.0743 91.8557 24.003C92.0663 24.9849 92.441 25.915 92.9609 26.7458C95.0597 30.8244 95.8953 35.545 95.3411 40.1932L101.576 30.2124C102.565 28.6281 104.284 26.8396 105.779 27.8346C106.279 28.1677 106.607 28.7653 107.128 29.0576C108.371 29.7551 109.694 28.4216 110.794 27.4771C114.588 24.2201 119.983 25.0733 124.705 26.0881C126.934 26.5672 129.382 27.1958 130.699 29.233C132.889 32.6184 130.603 37.5101 131.881 41.4211C132.238 41.1452 132.542 40.7931 132.774 40.3855C133.006 39.978 133.161 39.5233 133.23 39.0484C135.013 39.1091 137.197 38.9161 137.96 37.1413C138.193 36.4457 138.316 35.7119 138.326 34.9709C138.607 31.9896 139.93 29.2698 140.806 26.4323C141.683 23.5948 142.064 20.2694 140.585 17.7537C140.044 16.9013 139.391 16.1422 138.647 15.5012C130.252 7.73266 119.216 6.45153 108.645 6.46306Z" fill="#2F2E41"/>
<path d="M151.375 87.7467L158.34 89.783C158.34 89.783 174.549 135.502 170.812 166.79C167.074 198.078 164.831 191.491 164.831 191.491C164.831 191.491 158.851 176.67 145.395 179.964L151.375 87.7467Z" fill="#2F2E41"/>
<path d="M77.6545 446.513C75.8518 449.211 76.2133 453.068 74.6164 455.919C73.2322 458.391 70.6236 459.687 68.8922 461.877C68.3398 462.604 67.8473 463.384 67.4206 464.208C65.8145 467.171 64.509 470.969 66.0908 473.948C67.3632 476.344 70.0378 477.28 72.4908 477.919C75.5911 478.726 78.8124 479.371 81.9485 478.755C85.0846 478.138 88.1497 476.023 89.2678 472.738C89.4876 471.912 89.7489 471.099 90.0504 470.305C91.7503 466.62 97.082 466.58 98.8216 462.917C100.039 460.353 98.9199 457.254 97.8013 454.637L94.3846 446.642C93.2508 443.989 88.6545 445.515 86.2583 444.879C83.1331 444.05 79.9027 443.137 77.6545 446.513Z" fill="#2F2E41"/>
<path d="M52.6968 189.844L84.0944 243.363C84.0944 243.363 103.531 270.534 109.512 258.184C115.492 245.833 88.5798 225.249 88.5798 225.249L68.3956 184.081L52.6968 189.844Z" fill="#FFB8B8"/>
<path d="M68.3955 89.3934L62.415 87.7467C62.415 87.7467 50.454 91.8635 47.4638 109.154C44.4735 126.445 46.7162 195.608 50.454 196.431C54.1919 197.254 68.9151 184.388 71.2718 187.116C73.6285 189.844 66.1528 175.847 68.3955 168.437C70.6382 161.026 68.3955 89.3934 68.3955 89.3934Z" fill="#2F2E41"/>
<path d="M349.457 126.146H330.136V131.269H349.457V126.146Z" fill="#6C63FF"/>
<path d="M416.367 126.146H409.569V131.269H416.367V126.146Z" fill="#6C63FF"/>
<path d="M429.964 126.146H423.166V131.269H429.964V126.146Z" fill="#6C63FF"/>
<path d="M402.412 126.146H356.255V131.269H402.412V126.146Z" fill="#6C63FF"/>
<path d="M325.126 159.249H305.805V164.373H325.126V159.249Z" fill="#6C63FF"/>
<path d="M392.036 159.249H385.238V164.373H392.036V159.249Z" fill="#6C63FF"/>
<path d="M405.633 159.249H398.834V164.373H405.633V159.249Z" fill="#6C63FF"/>
<path d="M378.082 159.249H331.925V164.373H378.082V159.249Z" fill="#6C63FF"/>
<path d="M404.917 137.575H385.596V142.698H404.917V137.575Z" fill="#6C63FF"/>
<path d="M431.037 137.575H411.715V142.698H431.037V137.575Z" fill="#6C63FF"/>
<path d="M312.603 137.575H305.805V142.698H312.603V137.575Z" fill="#6C63FF"/>
<path d="M326.2 137.575H319.401V142.698H326.2V137.575Z" fill="#6C63FF"/>
<path d="M379.155 137.575H332.998V142.698H379.155V137.575Z" fill="#6C63FF"/>
<path d="M364.843 148.609H345.521V153.732H364.843V148.609Z" fill="#6C63FF"/>
<path d="M338.723 148.609H319.401V153.732H338.723V148.609Z" fill="#6C63FF"/>
<path d="M312.603 148.609H305.805V153.732H312.603V148.609Z" fill="#6C63FF"/>
<path d="M431.037 148.609H424.239V153.732H431.037V148.609Z" fill="#6C63FF"/>
<path d="M417.44 148.609H371.283V153.732H417.44V148.609Z" fill="#6C63FF"/>
</g>
<defs>
<clipPath id="clip0_63_52">
<rect width="461.855" height="479" fill="white" transform="translate(46.0781)"/>
</clipPath>
</defs>
</svg>
