<svg width="48" height="47" viewBox="0 0 48 47" fill="none" xmlns="http://www.w3.org/2000/svg">
<path d="M47.9998 7.35024C47.9998 3.72568 44.9248 0.778809 41.1426 0.778809H6.85693C3.07479 0.778809 -0.000213623 3.72568 -0.000213623 7.35024V40.2074C-0.000213623 43.8319 3.07479 46.7788 6.85693 46.7788H41.1426C44.9248 46.7788 47.9998 43.8319 47.9998 40.2074V7.35024ZM19.3819 43.1748C15.7712 43.1748 13.6819 41.3882 12.6105 39.2217L16.2855 37.0962C16.9926 38.2976 17.6355 39.3141 19.1891 39.3141C20.6676 39.3141 21.6105 38.7596 21.6105 36.5931V21.8998H26.1212V36.6547C26.1212 41.1315 23.3784 43.1748 19.3819 43.1748ZM28.5748 38.7596L32.2498 36.7266C33.2141 38.236 34.4784 39.3552 36.6962 39.3552C38.5605 39.3552 39.7605 38.4618 39.7605 37.2194C39.7605 35.7409 38.5391 35.2172 36.4712 34.3444L35.3462 33.8824C32.0891 32.5578 29.9355 30.8842 29.9355 27.3623C29.9355 24.1176 32.5176 21.6534 36.5355 21.6534C39.4069 21.6534 41.4641 22.6083 42.9426 25.1136L39.4284 27.2699C38.6569 25.9453 37.8212 25.4217 36.5248 25.4217C35.2069 25.4217 34.3712 26.2226 34.3712 27.2699C34.3712 28.5636 35.2069 29.0873 37.1462 29.8985L38.2712 30.3605C42.1069 31.9315 44.2605 33.5435 44.2605 37.1578C44.2605 41.0391 41.0676 43.1748 36.7926 43.1748C32.6034 43.1748 29.8926 41.265 28.5748 38.7596Z" fill="#8E8E8E"/>
</svg>
