<svg width="18" height="19" viewBox="0 0 18 19" fill="none" xmlns="http://www.w3.org/2000/svg">
<path d="M2.66886 18.018C2.15534 18.018 1.71573 17.8314 1.35005 17.458C0.984358 17.0847 0.801514 16.6359 0.801514 16.1116V2.76622C0.801514 2.24194 0.984358 1.79312 1.35005 1.41977C1.71573 1.04642 2.15534 0.859741 2.66886 0.859741H9.20456V2.76622H2.66886V16.1116H15.7403V9.4389H17.6076V16.1116C17.6076 16.6359 17.4248 17.0847 17.0591 17.458C16.6934 17.8314 16.2538 18.018 15.7403 18.018H2.66886ZM7.05712 12.9659L5.74997 11.6313L14.4331 2.76622H11.0719V0.859741H17.6076V7.53242H15.7403V4.10075L7.05712 12.9659Z" fill="#F0C969"/>
</svg>
