<svg width="22" height="22" viewBox="0 0 22 22" fill="none" xmlns="http://www.w3.org/2000/svg">
<path d="M19.0679 0.854553H3.20765C1.83971 0.854553 0.729492 1.96477 0.729492 3.33271V19.1929C0.729492 20.5609 1.83971 21.6711 3.20765 21.6711H19.0679C20.4358 21.6711 21.546 20.5609 21.546 19.1929V3.33271C21.546 1.96477 20.4358 0.854553 19.0679 0.854553ZM7.17271 8.78467V18.2017H4.19892V8.78467H7.17271ZM4.19892 6.04382C4.19892 5.34994 4.79368 4.81961 5.68581 4.81961C6.57795 4.81961 7.13802 5.34994 7.17271 6.04382C7.17271 6.73771 6.6176 7.29777 5.68581 7.29777C4.79368 7.29777 4.19892 6.73771 4.19892 6.04382ZM18.0766 18.2017H15.1028C15.1028 18.2017 15.1028 13.6121 15.1028 13.2454C15.1028 12.2541 14.6072 11.2628 13.3681 11.243H13.3285C12.129 11.243 11.6334 12.264 11.6334 13.2454C11.6334 13.6964 11.6334 18.2017 11.6334 18.2017H8.65961V8.78467H11.6334V10.0535C11.6334 10.0535 12.59 8.78467 14.513 8.78467C16.4807 8.78467 18.0766 10.1377 18.0766 12.8786V18.2017Z" fill="#8E8E8E"/>
</svg>
