<svg width="28" height="22" viewBox="0 0 28 22" fill="none" xmlns="http://www.w3.org/2000/svg">
<path d="M27.9884 5.97943L24.6949 7.79087L21.4014 10.9197V21.6566H26.0123C27.1038 21.6566 27.9884 20.772 27.9884 19.6805V5.97943Z" fill="#8E8E8E"/>
<path d="M0.322754 5.97943L2.70332 7.10582L6.90982 10.9197V21.6566H2.29887C1.2074 21.6566 0.322754 20.772 0.322754 19.6805V5.97943Z" fill="#8E8E8E"/>
<path d="M21.4012 2.68591L14.1555 8.12024L6.90968 2.68591L6.25098 6.50641L6.90968 10.9197L14.1555 16.3541L21.4012 10.9197L22.0599 6.50641L21.4012 2.68591Z" fill="#8E8E8E"/>
<path d="M0.322754 3.40918V5.97946L6.90982 10.9198V2.68592L4.85202 1.14389C4.36194 0.776335 3.76647 0.578064 3.15387 0.578064C1.5901 0.578064 0.322754 1.84542 0.322754 3.40918Z" fill="#8E8E8E"/>
<path d="M27.9884 3.40918V5.97946L21.4014 10.9198V2.68592L23.4592 1.14389C23.9492 0.776335 24.5447 0.578064 25.1573 0.578064C26.7211 0.578064 27.9884 1.84542 27.9884 3.40918Z" fill="#8E8E8E"/>
</svg>
