<svg width="49" height="47" viewBox="0 0 49 47" fill="none" xmlns="http://www.w3.org/2000/svg">
<path d="M24.1082 46.6049C23.3885 46.6049 22.6579 46.4406 22.0241 46.1302L15.3956 42.7985C14.4073 42.3239 14.8907 42.1596 15.213 42.0683C16.5344 41.6758 16.803 41.5936 18.2103 40.9091C18.3607 40.836 18.5541 40.8634 18.7045 40.9456L23.7967 43.5105C23.9793 43.6018 24.2372 43.6018 24.4091 43.5105L44.2515 33.7802C44.4341 33.6889 44.5523 33.5063 44.5523 33.3238V13.8631C44.5523 13.6714 44.4341 13.498 44.2407 13.3976L24.4091 3.67639C24.2264 3.58511 23.9793 3.58511 23.7967 3.67639L3.97575 13.4067C3.78237 13.498 3.6642 13.6806 3.6642 13.8722V33.3238C3.6642 33.5063 3.78237 33.6889 3.97575 33.771L9.41174 36.4364C12.3661 37.6869 14.1709 36.2173 14.1709 34.7295V15.5244C14.1709 15.2506 14.4287 15.0406 14.751 15.0406H17.2649C17.5765 15.0406 17.845 15.2506 17.845 15.5244V34.7386C17.845 38.0794 15.6964 39.9963 11.9686 39.9963C10.8191 39.9963 9.91666 39.9963 7.40278 38.9374L2.20314 36.3908C0.913975 35.7609 0.118988 34.5834 0.118988 33.3147V13.8631C0.118988 12.6035 0.913975 11.4168 2.20314 10.787L22.0241 1.05669C23.281 0.454248 24.9462 0.454248 26.1924 1.05669L46.0348 10.7961C47.324 11.426 48.119 12.6035 48.119 13.8722V33.3238C48.119 34.5834 47.324 35.7609 46.0348 36.3999L26.1924 46.1302C25.5586 46.4406 24.8388 46.6049 24.1082 46.6049ZM40.1262 27.4272C40.1262 23.7851 37.2255 22.8176 31.1342 22.133C24.9677 21.4393 24.3446 21.0833 24.3446 19.8601C24.3446 18.8469 24.871 17.496 29.4368 17.496C33.5084 17.496 35.0125 18.2445 35.6355 20.5812C35.6893 20.8003 35.9256 20.9646 36.1942 20.9646H38.7725C38.9337 20.9646 39.0841 20.9098 39.1915 20.8094C39.2989 20.709 39.3526 20.5721 39.3419 20.4352C38.9444 16.4098 35.7967 14.5386 29.4368 14.5386C23.7752 14.5386 20.4019 16.565 20.4019 19.9697C20.4019 23.6573 23.7645 24.6797 29.1897 25.1361C35.6893 25.6746 36.1942 26.487 36.1942 27.5732C36.1942 29.4536 34.4108 30.2568 30.2318 30.2568C24.9784 30.2568 23.8289 29.1341 23.4422 26.916C23.3992 26.6787 23.1629 26.5052 22.8728 26.5052H20.3052C19.9829 26.5052 19.7358 26.7243 19.7358 26.989C19.7358 29.8278 21.5514 33.2142 30.2425 33.2142C36.5165 33.2051 40.1262 31.0966 40.1262 27.4272Z" fill="#8E8E8E"/>
</svg>
