<svg width="48" height="42" viewBox="0 0 48 42" fill="none" xmlns="http://www.w3.org/2000/svg">
<path d="M39.2063 13.9203C38.7 13.7586 38.1938 13.6058 37.6875 13.4621C37.7719 13.1297 37.8469 12.7972 37.9219 12.4648C39.075 7.11013 38.3156 2.80662 35.7562 1.38708C33.2906 0.030444 29.2687 1.44099 25.2 4.83708C24.7969 5.16951 24.4031 5.5199 24.0281 5.87029C23.775 5.63669 23.5125 5.4031 23.25 5.17849C18.9844 1.5488 14.7094 0.0214598 12.15 1.44998C9.69375 2.8156 8.9625 6.86755 9.99375 11.9347C10.0969 12.4379 10.2094 12.932 10.3406 13.4351C9.74063 13.5968 9.15 13.7765 8.59687 13.9652C3.59062 15.6273 0 18.2508 0 20.964C0 23.7672 3.825 26.5793 9.02813 28.2863C9.45 28.4211 9.87188 28.5558 10.3031 28.6726C10.1625 29.2117 10.0406 29.7418 9.92813 30.2898C8.94375 35.2761 9.7125 39.2293 12.1688 40.5859C14.7 41.9875 18.9562 40.55 23.1 37.073C23.4281 36.7945 23.7562 36.507 24.0844 36.2015C24.4969 36.5879 24.9281 36.9562 25.3594 37.3156C29.3719 40.6218 33.3375 41.9605 35.7844 40.6039C38.3156 39.2023 39.1406 34.9527 38.0719 29.7777C37.9875 29.3824 37.8938 28.9781 37.7906 28.5648C38.0906 28.484 38.3813 28.3941 38.6719 28.3043C44.0813 26.5883 48 23.8121 48 20.964C48 18.2418 44.3063 15.6004 39.2063 13.9203ZM26.5219 6.29255C30.0094 3.38162 33.2625 2.2406 34.7438 3.05818C36.3281 3.92966 36.9375 7.45154 35.9437 12.0785C35.8781 12.384 35.8125 12.6804 35.7281 12.9769C33.6469 12.5277 31.5375 12.2043 29.4187 12.0246C28.2 10.3535 26.8688 8.75427 25.425 7.25388C25.7906 6.92146 26.1469 6.60701 26.5219 6.29255ZM15.675 25.6269C16.1531 26.4086 16.6406 27.1902 17.1562 27.9539C15.6937 27.8011 14.2406 27.5765 12.8063 27.28C13.2188 25.9863 13.7344 24.6476 14.3344 23.282C14.7656 24.0726 15.2062 24.8543 15.675 25.6269ZM12.8344 14.8187C14.1844 14.5312 15.6188 14.2976 17.1094 14.1179C16.6125 14.8636 16.125 15.6273 15.6656 16.4C15.2063 17.1636 14.7562 17.9453 14.3344 18.7359C13.7437 17.3972 13.2469 16.0855 12.8344 14.8187ZM15.4031 21.009C16.0219 19.7691 16.6969 18.5562 17.4094 17.3613C18.1219 16.1664 18.8906 15.0074 19.6969 13.8664C21.1031 13.7676 22.5375 13.7136 24 13.7136C25.4625 13.7136 26.9062 13.7676 28.3031 13.8664C29.1 14.9984 29.8594 16.1574 30.5813 17.3433C31.3031 18.5293 31.9781 19.7422 32.6156 20.973C31.9875 22.2129 31.3125 23.4347 30.5906 24.6386C29.8781 25.8336 29.1188 26.9925 28.3219 28.1425C26.925 28.2414 25.4719 28.2863 24 28.2863C22.5281 28.2863 21.1031 28.2414 19.725 28.1605C18.9094 27.0195 18.1406 25.8515 17.4188 24.6566C16.6969 23.4617 16.0313 22.2488 15.4031 21.009ZM32.3344 25.609C32.8125 24.8183 33.2625 24.0187 33.7031 23.2101C34.3031 24.5129 34.8281 25.8336 35.2875 27.1902C33.8344 27.5047 32.3625 27.7472 30.8812 27.909C31.3875 27.1543 31.8656 26.3816 32.3344 25.609ZM33.6844 18.7359C33.2437 17.9453 32.7937 17.1547 32.325 16.382C31.8656 15.6183 31.3875 14.8636 30.8906 14.1179C32.4 14.2976 33.8437 14.5402 35.1937 14.8367C34.7625 16.1664 34.2562 17.4601 33.6844 18.7359ZM24.0188 8.62849C25.0031 9.65271 25.9312 10.7308 26.7937 11.8449C24.9375 11.764 23.0719 11.764 21.2156 11.8449C22.1344 10.6859 23.0813 9.60779 24.0188 8.62849ZM13.1437 3.12107C14.7187 2.2406 18.2156 3.49841 21.9 6.62497C22.1344 6.82263 22.3687 7.03826 22.6125 7.25388C21.1594 8.75427 19.8188 10.3535 18.5906 12.0246C16.4719 12.2043 14.3719 12.5187 12.2906 12.959C12.1688 12.5008 12.0656 12.0336 11.9625 11.5664C11.0812 7.21794 11.6625 3.93865 13.1437 3.12107ZM10.8469 26.8039C10.4531 26.6961 10.0688 26.5793 9.68438 26.4535C7.6875 25.8515 5.41875 24.8992 3.77812 23.6504C2.83125 23.0215 2.19375 22.0511 2.01562 20.964C2.01562 19.3199 4.97812 17.2175 9.25312 15.789C9.7875 15.6093 10.3312 15.4476 10.875 15.2949C11.5125 17.2445 12.2812 19.1582 13.1719 21.009C12.2719 22.8867 11.4937 24.8273 10.8469 26.8039ZM21.7781 35.6086C20.2313 36.9652 18.4406 38.0433 16.4906 38.78C15.45 39.2562 14.25 39.3011 13.1813 38.8968C11.6906 38.0703 11.0719 34.8988 11.9156 30.6312C12.0187 30.1281 12.1313 29.625 12.2625 29.1308C14.3625 29.5621 16.4812 29.8586 18.6281 30.0113C19.8656 31.6914 21.225 33.2996 22.6781 34.809C22.3781 35.0875 22.0781 35.357 21.7781 35.6086ZM24.075 33.4254C23.1187 32.4371 22.1625 31.341 21.2344 30.164C22.1344 30.2 23.0625 30.2179 24 30.2179C24.9656 30.2179 25.9125 30.2 26.85 30.155C25.9875 31.2961 25.0594 32.3832 24.075 33.4254ZM36.3281 36.1207C36.2438 37.2168 35.6813 38.241 34.7812 38.9328C33.2906 39.7593 30.1125 38.6812 26.6813 35.8601C26.2875 35.5367 25.8937 35.1863 25.4906 34.8269C26.925 33.3086 28.2469 31.7004 29.4469 30.0113C31.5938 29.8406 33.7312 29.5261 35.8406 29.0679C35.9344 29.4363 36.0187 29.8047 36.0938 30.164C36.5531 32.1047 36.6281 34.1261 36.3281 36.1207ZM38.0344 26.4625C37.7719 26.5433 37.5094 26.6242 37.2375 26.6961C36.5813 24.7375 35.775 22.8238 34.8469 20.964C35.7469 19.1312 36.5063 17.2445 37.1438 15.3129C37.6313 15.4476 38.1 15.5914 38.55 15.7351C42.9188 17.1726 45.9844 19.3109 45.9844 20.9461C45.9844 22.707 42.7125 24.98 38.0344 26.4625ZM24 25.1148C26.3719 25.1148 28.2937 23.273 28.2937 21C28.2937 18.7269 26.3719 16.8851 24 16.8851C21.6281 16.8851 19.7062 18.7269 19.7062 21C19.7062 23.273 21.6281 25.1148 24 25.1148Z" fill="#8E8E8E"/>
</svg>
