<svg width="37" height="37" viewBox="0 0 37 37" fill="none" xmlns="http://www.w3.org/2000/svg">
<path d="M35.7848 15.5524L31.175 14.7989C30.9051 13.8738 30.5361 12.9846 30.0744 12.143L32.7654 8.30774C32.983 7.99808 32.9456 7.5761 32.678 7.30778L29.6446 4.27592C29.3739 4.00604 28.9481 3.97094 28.6376 4.1948L24.8601 6.90998C24.0107 6.44042 23.1137 6.06758 22.1831 5.79692L21.3789 1.20584C21.3134 0.832998 20.9897 0.559998 20.6106 0.559998H16.3206C15.9384 0.559998 15.6124 0.836898 15.5508 1.21442L14.8051 5.78054C13.8691 6.04964 12.9705 6.41858 12.1242 6.8819L8.35684 4.1909C8.04562 3.9686 7.62208 4.00448 7.35142 4.27358L4.31956 7.30544C4.05202 7.57298 4.01458 7.99418 4.2322 8.30384L6.88342 12.097C6.41152 12.9511 6.03556 13.8551 5.76178 14.7958L1.2136 15.5532C0.837643 15.6156 0.561523 15.9416 0.561523 16.3222V20.6122C0.561523 20.9905 0.832963 21.3142 1.20502 21.3805L5.7532 22.1871C6.02542 23.1254 6.40138 24.0294 6.87484 24.8859L4.19086 28.64C3.96934 28.9497 4.00444 29.3748 4.27354 29.6454L7.30618 32.6804C7.57372 32.9479 7.9957 32.9854 8.30536 32.7678L12.104 30.1072C12.9565 30.576 13.8574 30.948 14.7911 31.2179L15.5523 35.7895C15.614 36.1647 15.9392 36.44 16.3206 36.44H20.6106C20.9889 36.44 21.3126 36.1686 21.3782 35.7965L22.1933 31.2023C23.1285 30.927 24.0247 30.5526 24.8687 30.083L28.6946 32.767C29.005 32.9862 29.4262 32.9479 29.6945 32.6804L32.7272 29.6454C32.997 29.3748 33.0321 28.9481 32.8083 28.6377L30.0798 24.8492C30.5424 24.0068 30.9098 23.116 31.1773 22.191L35.7933 21.3805C36.167 21.315 36.4384 20.9905 36.4384 20.6122V16.3222C36.4392 15.94 36.1623 15.614 35.7848 15.5524ZM18.5 23.96C15.4845 23.96 13.04 21.5155 13.04 18.5C13.04 15.4845 15.4845 13.04 18.5 13.04C21.5154 13.04 23.96 15.4845 23.96 18.5C23.96 21.5155 21.5154 23.96 18.5 23.96Z" fill="#8E8E8E"/>
</svg>
