<svg width="17" height="18" viewBox="0 0 17 18" fill="none" xmlns="http://www.w3.org/2000/svg">
<path d="M13.4061 0.452081C13.0526 0.465309 12.7229 0.633604 12.5048 0.912109L8.73073 5.59309L5.56314 1.2069C5.22666 0.741603 4.68753 0.465232 4.1136 0.465232H0.777019C0.144447 0.465232 -0.222118 1.18269 0.148004 1.6951L5.68707 9.36529L0.487862 15.8131C0.211242 16.1465 0.135468 16.603 0.289535 17.0079C0.443602 17.4128 0.803649 17.7035 1.23194 17.7687C1.66023 17.8338 2.09045 17.6635 2.35801 17.3228L7.14601 11.3856L11.2224 17.028C11.5589 17.4933 12.098 17.7696 12.6719 17.7696H16.0085C16.6411 17.7696 17.0076 17.0522 16.6375 16.5398L10.1897 7.61156L14.375 2.42174C14.6783 2.05713 14.7389 1.5482 14.5295 1.12259C14.3202 0.696977 13.8801 0.434315 13.4061 0.452081Z" fill="#8E8E8E"/>
</svg>
